<?xml version="1.0" encoding="utf-8"?>
<!-- Generator: Adobe Illustrator 27.4.0, SVG Export Plug-In . SVG Version: 6.00 Build 0)  -->
<svg version="1.1" xmlns="http://www.w3.org/2000/svg" xmlns:xlink="http://www.w3.org/1999/xlink" x="0px" y="0px"
	 viewBox="0 0 53 53" style="enable-background:new 0 0 53 53;" xml:space="preserve">
<style type="text/css">
	.st0{display:none;}
	.st1{display:inline;}
	.st2{fill:#0084B2;}
</style>
<g id="Layer_1" class="st0">
	<g class="st1">
		<path d="M22,19.3c0-2.5,2-4.5,4.5-4.5c1.2,0,2.3,0.5,3.2,1.3c0.8,0.9,1.3,2,1.3,3.2v3.9c0.4,0.2,0.7,0.4,1,0.7v-4.6
			c0-1.4-0.6-2.8-1.6-3.9c-1.1-1-2.4-1.6-3.9-1.6c-3,0-5.5,2.5-5.5,5.5v4.6c0.3-0.2,0.7-0.5,1-0.7V19.3z"/>
		<path d="M31.8,25c-1.5-1.3-3.4-2-5.3-2s-3.9,0.7-5.3,2c-1.7,1.5-2.7,3.8-2.7,6.1c0,4.5,3.6,8.1,8.1,8.1s8.1-3.6,8.1-8.1
			C34.6,28.8,33.6,26.6,31.8,25z M27,32.3c0,0.3-0.2,0.5-0.5,0.5S26,32.6,26,32.3v-2.5c0-0.3,0.2-0.5,0.5-0.5s0.5,0.2,0.5,0.5V32.3z
			"/>
		<path d="M6.9,9.2v5.8c0,2.3,1.9,4.2,4.2,4.2h4.3c0.3,0,0.5-0.2,0.5-0.5s-0.2-0.5-0.5-0.5h-4.3c-1.8,0-3.2-1.4-3.2-3.2V9.2
			c1.4-0.2,2.4-1.4,2.4-2.8c0-1.6-1.3-2.9-2.9-2.9c-1.6,0-2.9,1.3-2.9,2.9C4.4,7.8,5.5,9,6.9,9.2z"/>
		<path d="M41.9,18.3h-4.3c-0.3,0-0.5,0.2-0.5,0.5s0.2,0.5,0.5,0.5h4.3c2.3,0,4.2-1.9,4.2-4.2V9.2c1.4-0.2,2.4-1.4,2.4-2.8
			c0-1.6-1.3-2.9-2.9-2.9c-1.6,0-2.9,1.3-2.9,2.9c0,1.4,1,2.6,2.4,2.8v5.8C45.1,16.8,43.7,18.3,41.9,18.3z"/>
		<path d="M15.6,8.3V2.5c0-0.3-0.2-0.5-0.5-0.5s-0.5,0.2-0.5,0.5v5.8c-1.4,0.2-2.4,1.4-2.4,2.8c0,1.6,1.3,2.9,2.9,2.9
			c1.6,0,2.9-1.3,2.9-2.9C18,9.8,16.9,8.6,15.6,8.3z"/>
		<path d="M37.9,14.1c1.6,0,2.9-1.3,2.9-2.9c0-1.4-1-2.6-2.4-2.8V2.5c0-0.3-0.2-0.5-0.5-0.5s-0.5,0.2-0.5,0.5v5.8
			C36.1,8.6,35,9.8,35,11.2C35,12.8,36.3,14.1,37.9,14.1z"/>
		<path d="M11.1,34.7h4.3c0.3,0,0.5-0.2,0.5-0.5s-0.2-0.5-0.5-0.5h-4.3c-2.3,0-4.2,1.9-4.2,4.2v5.8c-1.4,0.2-2.4,1.4-2.4,2.8
			c0,1.6,1.3,2.9,2.9,2.9c1.6,0,2.9-1.3,2.9-2.9c0-1.4-1-2.6-2.4-2.8v-5.8C7.9,36.2,9.3,34.7,11.1,34.7z"/>
		<path d="M46.1,43.8v-5.8c0-2.3-1.9-4.2-4.2-4.2h-4.3c-0.3,0-0.5,0.2-0.5,0.5s0.2,0.5,0.5,0.5h4.3c1.8,0,3.2,1.4,3.2,3.2v5.8
			c-1.4,0.2-2.4,1.4-2.4,2.8c0,1.6,1.3,2.9,2.9,2.9c1.6,0,2.9-1.3,2.9-2.9C48.6,45.2,47.5,44,46.1,43.8z"/>
		<path d="M15.1,38.9c-1.6,0-2.9,1.3-2.9,2.9c0,1.4,1,2.6,2.4,2.8v5.8c0,0.3,0.2,0.5,0.5,0.5s0.5-0.2,0.5-0.5v-5.8
			c1.4-0.2,2.4-1.4,2.4-2.8C18,40.2,16.7,38.9,15.1,38.9z"/>
		<path d="M37.9,38.9c-1.6,0-2.9,1.3-2.9,2.9c0,1.4,1,2.6,2.4,2.8v5.8c0,0.3,0.2,0.5,0.5,0.5s0.5-0.2,0.5-0.5v-5.8
			c1.4-0.2,2.4-1.4,2.4-2.8C40.8,40.2,39.5,38.9,37.9,38.9z"/>
	</g>
</g>
<g id="Layer_1_cópia">
	<g>
		<g id="XMLID_00000176028314814526140410000004157765265332792199_">
			<g>
				<path class="st2" d="M41.9,33.7c2.3,0,4.2,1.9,4.2,4.2v5.8c1.4,0.2,2.4,1.4,2.4,2.9c0,1.6-1.3,2.9-2.9,2.9
					c-1.6,0-2.9-1.3-2.9-2.9c0-1.4,1-2.6,2.4-2.9v-5.8c0-1.8-1.4-3.2-3.2-3.2h-4.3c-0.3,0-0.5-0.2-0.5-0.5c0-0.3,0.2-0.5,0.5-0.5
					H41.9z"/>
				<path class="st2" d="M45.2,9.2c-1.4-0.2-2.4-1.4-2.4-2.8c0-1.6,1.3-2.9,2.9-2.9c1.6,0,2.9,1.3,2.9,2.9c0,1.4-1,2.6-2.4,2.8v5.8
					c0,2.3-1.9,4.2-4.2,4.2h-4.3c-0.3,0-0.5-0.2-0.5-0.5c0-0.3,0.2-0.5,0.5-0.5h4.3c1.8,0,3.2-1.4,3.2-3.2V9.2z"/>
				<path class="st2" d="M38.4,44.7v5.8c0,0.3-0.2,0.5-0.5,0.5c-0.3,0-0.5-0.2-0.5-0.5v-5.8c-1.4-0.2-2.4-1.4-2.4-2.8
					c0-1.6,1.3-2.9,2.9-2.9c1.6,0,2.9,1.3,2.9,2.9C40.8,43.2,39.8,44.4,38.4,44.7z"/>
				<path class="st2" d="M38.4,8.3c1.4,0.2,2.4,1.4,2.4,2.8c0,1.6-1.3,2.9-2.9,2.9c-1.6,0-2.9-1.3-2.9-2.9c0-1.4,1-2.6,2.4-2.8V2.5
					c0-0.3,0.2-0.5,0.5-0.5c0.3,0,0.5,0.2,0.5,0.5V8.3z"/>
				<path class="st2" d="M34.6,31.1c0,4.5-3.6,8.1-8.1,8.1s-8.1-3.6-8.1-8.1c0-2.3,1-4.5,2.8-6.1c0.2-0.2,0.4-0.3,0.6-0.5
					c1.4-1,3-1.6,4.8-1.6c1.5,0,2.9,0.4,4.1,1.2c0.4,0.2,0.8,0.5,1.2,0.9C33.6,26.6,34.6,28.8,34.6,31.1z M27,32.3v-2.5
					c0-0.3-0.2-0.5-0.5-0.5S26,29.6,26,29.9v2.5c0,0.3,0.2,0.5,0.5,0.5S27,32.6,27,32.3z"/>
				<path class="st2" d="M21,19.3c0-3,2.5-5.5,5.5-5.5c1.5,0,2.8,0.6,3.9,1.6c1.1,1.1,1.6,2.5,1.6,3.9v4.6c-0.3-0.2-0.6-0.5-1-0.7
					v-3.9c0-1.2-0.5-2.3-1.3-3.2c-0.9-0.8-2-1.3-3.2-1.3c-2.5,0-4.5,2-4.5,4.5v3.9c-0.4,0.2-0.7,0.4-1,0.7V19.3z"/>
				<path class="st2" d="M18,41.8c0,1.4-1,2.6-2.4,2.8v5.8c0,0.3-0.2,0.5-0.5,0.5c-0.3,0-0.5-0.2-0.5-0.5v-5.8
					c-1.4-0.2-2.4-1.4-2.4-2.8c0-1.6,1.3-2.9,2.9-2.9C16.7,38.9,18,40.2,18,41.8z"/>
				<path class="st2" d="M15.6,8.3c1.4,0.2,2.4,1.4,2.4,2.8c0,1.6-1.3,2.9-2.9,2.9c-1.6,0-2.9-1.3-2.9-2.9c0-1.4,1.1-2.6,2.4-2.8
					V2.5c0-0.3,0.2-0.5,0.5-0.5c0.3,0,0.5,0.2,0.5,0.5V8.3z"/>
				<path class="st2" d="M11.1,19.3c-2.3,0-4.2-1.9-4.2-4.2V9.2C5.5,9,4.4,7.8,4.4,6.4c0-1.6,1.3-2.9,2.9-2.9c1.6,0,2.9,1.3,2.9,2.9
					c0,1.4-1,2.6-2.4,2.8v5.8c0,1.8,1.4,3.2,3.2,3.2h4.3c0.3,0,0.5,0.2,0.5,0.5c0,0.3-0.2,0.5-0.5,0.5H11.1z"/>
				<path class="st2" d="M11.1,34.7c-1.8,0-3.2,1.4-3.2,3.2v5.8c1.4,0.2,2.4,1.4,2.4,2.9c0,1.6-1.3,2.9-2.9,2.9
					c-1.6,0-2.9-1.3-2.9-2.9c0-1.4,1-2.6,2.4-2.9v-5.8c0-2.3,1.9-4.2,4.2-4.2h4.3c0.3,0,0.5,0.2,0.5,0.5c0,0.3-0.2,0.5-0.5,0.5H11.1
					z"/>
			</g>
			<g>
			</g>
		</g>
	</g>
</g>
</svg>
